<?xml version="1.0"?>
<svg xmlns="http://www.w3.org/2000/svg" xmlns:xlink="http://www.w3.org/1999/xlink" xmlns:svgjs="http://svgjs.com/svgjs" version="1.1" width="512" height="512" x="0" y="0" viewBox="0 0 512 512" style="enable-background:new 0 0 512 512" xml:space="preserve" class=""><g>
<g xmlns="http://www.w3.org/2000/svg">
	<g>
		<path d="M28.457,0v512h455.087V0H28.457z M91.333,482H58.457v-31.936h32.877V482z M91.333,420.064H58.457v-30.003h32.877V420.064z     M91.333,360.061H58.457v-30.004h32.877V360.061z M91.333,300.057H58.457v-30.004h32.877V300.057z M91.333,240.053H58.457v-30.004    h32.877V240.053z M91.333,180.048H58.457v-30.003h32.877V180.048z M91.333,120.045H58.457V90.042h32.877V120.045z M91.333,60.042    H58.457V30h32.877V60.042z M390.666,482H121.333V270.053h269.332V482z M390.666,240.053H121.333V30h269.332V240.053z M453.542,482    h-32.877v-31.936h32.877V482z M453.542,420.064h-32.877v-30.003h0h32.877V420.064z M453.542,360.061h-32.877v-30.004h32.877    V360.061z M453.542,300.057h-32.877v-30.004h32.877V300.057z M453.542,240.053h-32.877v-30.004h32.877V240.053z M453.542,180.049    h-32.877v-30.003h32.877V180.049z M453.542,120.046h-32.877v-0.001V90.042h32.877V120.046z M453.543,60.042h-32.877V30h32.877    V60.042z" fill="#ffffff" data-original="#000000" style="" class=""/>
	</g>
</g>
<g xmlns="http://www.w3.org/2000/svg">
</g>
<g xmlns="http://www.w3.org/2000/svg">
</g>
<g xmlns="http://www.w3.org/2000/svg">
</g>
<g xmlns="http://www.w3.org/2000/svg">
</g>
<g xmlns="http://www.w3.org/2000/svg">
</g>
<g xmlns="http://www.w3.org/2000/svg">
</g>
<g xmlns="http://www.w3.org/2000/svg">
</g>
<g xmlns="http://www.w3.org/2000/svg">
</g>
<g xmlns="http://www.w3.org/2000/svg">
</g>
<g xmlns="http://www.w3.org/2000/svg">
</g>
<g xmlns="http://www.w3.org/2000/svg">
</g>
<g xmlns="http://www.w3.org/2000/svg">
</g>
<g xmlns="http://www.w3.org/2000/svg">
</g>
<g xmlns="http://www.w3.org/2000/svg">
</g>
<g xmlns="http://www.w3.org/2000/svg">
</g>
</g></svg>
