<svg xmlns="http://www.w3.org/2000/svg" x="0px" y="0px"
width="32" height="32"
viewBox="0 0 172 172"
style=" fill:#000000;"><g fill="none" fill-rule="nonzero" stroke="none" stroke-width="1" stroke-linecap="butt" stroke-linejoin="miter" stroke-miterlimit="10" stroke-dasharray="" stroke-dashoffset="0" font-family="none" font-weight="none" font-size="none" text-anchor="none" style="mix-blend-mode: normal"><path d="M0,172v-172h172v172z" fill="none"></path><g fill="#ffffff"><path d="M80.26667,17.2v28.66667c-0.02924,2.06765 1.05709,3.99087 2.843,5.03322c1.78592,1.04236 3.99474,1.04236 5.78066,0c1.78592,-1.04236 2.87225,-2.96558 2.843,-5.03322v-16.04661c28.88454,2.99929 51.6,26.48439 51.6,56.17995c0,31.73133 -25.60201,57.33333 -57.33333,57.33333c-31.73133,0 -57.33333,-25.60201 -57.33333,-57.33333c0,-14.06795 5.05633,-26.87358 13.4487,-36.84115c1.32036,-1.56823 1.70374,-3.72176 1.00572,-5.64931c-0.69803,-1.92755 -2.3714,-3.33626 -4.38974,-3.69545c-2.01834,-0.35918 -4.07498,0.38574 -5.39514,1.95413c-10.0575,11.94523 -16.1362,27.40853 -16.1362,44.23177c0,37.92867 30.87133,68.8 68.8,68.8c37.92867,0 68.8,-30.87133 68.8,-68.8c0,-37.92867 -30.87133,-68.8 -68.8,-68.8zM53.86198,51.64479c-1.67888,0.24483 -2.93206,2.21396 -1.81406,3.96406c8.3936,13.16947 22.72586,35.3795 25.84479,38.49843c4.47773,4.47773 11.73684,4.47773 16.21458,0c4.47773,-4.47773 4.47773,-11.73684 0,-16.21458c-3.11893,-3.12467 -25.32897,-17.45119 -38.49843,-25.84479c-0.58337,-0.37267 -1.18725,-0.48474 -1.74688,-0.40312z"></path></g></g></svg>