<?xml version="1.0"?>
<svg xmlns="http://www.w3.org/2000/svg" xmlns:xlink="http://www.w3.org/1999/xlink" xmlns:svgjs="http://svgjs.com/svgjs" version="1.1" width="512" height="512" x="0" y="0" viewBox="0 0 512 512" style="enable-background:new 0 0 512 512" xml:space="preserve" class=""><g><g xmlns="http://www.w3.org/2000/svg"><path d="m299.744 243.841-25.714-12.857c-3.703-1.852-8.209-.351-10.062 3.354s-.351 8.21 3.354 10.062l25.714 12.857c.137.069.393.196.393.635s-.255.566-.393.635l-63.742 31.871c-.105.053-.354.177-.69-.031-.337-.208-.337-.486-.337-.604v-63.741c0-.118 0-.396.337-.604s.584-.084.69-.031l10.515 5.257c3.705 1.853 8.21.351 10.062-3.354 1.853-3.705.351-8.21-3.354-10.062l-10.514-5.257c-4.906-2.454-10.62-2.196-15.285.687-4.666 2.883-7.451 7.879-7.451 13.364v63.741c0 5.484 2.785 10.48 7.451 13.364 2.539 1.57 5.389 2.361 8.25 2.361 2.395 0 4.799-.555 7.035-1.673l63.742-31.871c5.357-2.678 8.685-8.062 8.685-14.052-.002-5.989-3.329-11.373-8.686-14.051z" fill="#f9f6f6" data-original="#000000" style=""/><path d="m328.145 168.339h-144.29c-21.816 0-39.564 17.749-39.564 39.565v96.193c0 21.816 17.749 39.565 39.564 39.565h144.29c21.816 0 39.564-17.749 39.564-39.565v-96.193c0-21.817-17.748-39.565-39.564-39.565zm24.564 135.758c0 13.545-11.02 24.565-24.564 24.565h-144.29c-13.545 0-24.564-11.02-24.564-24.565v-96.193c0-13.545 11.02-24.565 24.564-24.565h144.29c13.545 0 24.564 11.02 24.564 24.565z" fill="#f9f6f6" data-original="#000000" style=""/><path d="m36.927 138.484c-3.707-1.85-8.21-.345-10.06 3.361-17.828 35.716-26.867 74.123-26.867 114.155 0 40.033 9.039 78.44 26.867 114.155 1.313 2.631 3.963 4.152 6.716 4.152 1.125 0 2.269-.254 3.344-.791 3.706-1.85 5.211-6.354 3.361-10.06-16.78-33.616-25.288-69.769-25.288-107.456 0-37.686 8.508-73.839 25.288-107.456 1.85-3.706.345-8.21-3.361-10.06z" fill="#f9f6f6" data-original="#000000" style=""/><path d="m76.635 166.334c-3.77-1.715-8.217-.049-9.932 3.723-12.346 27.151-18.606 56.066-18.606 85.943s6.26 58.792 18.606 85.943c1.257 2.764 3.981 4.397 6.832 4.397 1.038 0 2.094-.217 3.1-.675 3.771-1.714 5.438-6.161 3.723-9.932-11.454-25.186-17.261-52.013-17.261-79.733s5.808-54.547 17.261-79.734c1.714-3.771.047-8.217-3.723-9.932z" fill="#f9f6f6" data-original="#000000" style=""/><path d="m116.624 194.442c-3.867-1.486-8.206.443-9.691 4.31-7.127 18.538-10.74 37.799-10.74 57.248s3.613 38.71 10.739 57.248c1.146 2.981 3.988 4.811 7.002 4.811.895 0 1.805-.161 2.689-.501 3.866-1.486 5.796-5.825 4.31-9.692-6.463-16.814-9.74-34.264-9.74-51.866s3.277-35.052 9.74-51.866c1.486-3.867-.443-8.206-4.309-9.692z" fill="#f9f6f6" data-original="#000000" style=""/><path d="m485.133 141.845c-1.85-3.706-6.354-5.211-10.06-3.361s-5.211 6.354-3.361 10.06c16.78 33.616 25.288 69.769 25.288 107.456 0 37.686-8.508 73.839-25.288 107.456-1.85 3.706-.345 8.21 3.361 10.06 1.076.537 2.218.791 3.344.791 2.753 0 5.403-1.522 6.716-4.152 17.828-35.716 26.867-74.123 26.867-114.155 0-40.033-9.039-78.44-26.867-114.155z" fill="#f9f6f6" data-original="#000000" style=""/><path d="m435.365 166.334c-3.771 1.714-5.438 6.161-3.723 9.932 11.453 25.188 17.261 52.014 17.261 79.734s-5.808 54.547-17.261 79.734c-1.715 3.771-.048 8.217 3.723 9.932 1.007.458 2.062.675 3.1.675 2.85 0 5.575-1.634 6.832-4.397 12.346-27.151 18.606-56.066 18.606-85.943s-6.26-58.792-18.606-85.943c-1.715-3.772-6.163-5.439-9.932-3.724z" fill="#f9f6f6" data-original="#000000" style=""/><path d="m395.376 194.442c-3.866 1.486-5.796 5.825-4.31 9.692 6.463 16.814 9.74 34.264 9.74 51.866s-3.277 35.052-9.74 51.866c-1.486 3.866.443 8.206 4.31 9.692.885.34 1.794.501 2.689.501 3.014 0 5.856-1.83 7.002-4.811 7.126-18.538 10.739-37.799 10.739-57.248s-3.613-38.71-10.739-57.248c-1.485-3.867-5.826-5.796-9.691-4.31z" fill="#f9f6f6" data-original="#000000" style=""/></g></g></svg>
