<svg xmlns="http://www.w3.org/2000/svg" x="0px" y="0px"
width="30" height="30"
viewBox="0 0 172 172"
style=" fill:#000000;"><g fill="none" fill-rule="nonzero" stroke="none" stroke-width="1" stroke-linecap="butt" stroke-linejoin="miter" stroke-miterlimit="10" stroke-dasharray="" stroke-dashoffset="0" font-family="none" font-weight="none" font-size="none" text-anchor="none" style="mix-blend-mode: normal"><path d="M0,172v-172h172v172z" fill="none"></path><g fill="#ffffff"><path d="M34.4,11.46667c-2.06765,-0.02924 -3.99087,1.05709 -5.03322,2.843c-1.04236,1.78592 -1.04236,3.99474 0,5.78066c1.04236,1.78592 2.96558,2.87225 5.03322,2.843h103.2c2.06765,0.02924 3.99087,-1.05709 5.03322,-2.843c1.04236,-1.78592 1.04236,-3.99474 0,-5.78066c-1.04236,-1.78592 -2.96558,-2.87225 -5.03322,-2.843zM28.66667,34.4c-2.06765,-0.02924 -3.99087,1.05709 -5.03322,2.843c-1.04236,1.78592 -1.04236,3.99474 0,5.78066c1.04236,1.78592 2.96558,2.87225 5.03322,2.843h114.66667c2.06765,0.02924 3.99087,-1.05709 5.03322,-2.843c1.04236,-1.78592 1.04236,-3.99474 0,-5.78066c-1.04236,-1.78592 -2.96558,-2.87225 -5.03322,-2.843zM28.66667,57.33333c-6.33533,0 -11.46667,5.13133 -11.46667,11.46667v68.8c0,6.33533 5.13133,11.46667 11.46667,11.46667h114.66667c6.33533,0 11.46667,-5.13133 11.46667,-11.46667v-68.8c0,-6.33533 -5.13133,-11.46667 -11.46667,-11.46667zM74.53333,80.26667c1.1696,0 2.19596,0.43941 3.10183,1.04141l28.70026,17.22239c1.5308,1.032 2.59792,2.6858 2.59792,4.66953c0,1.98373 -1.06712,3.63753 -2.59792,4.66953l-28.70026,17.22239c-0.90587,0.602 -1.93223,1.04141 -3.10183,1.04141c-3.1648,0 -5.73333,-2.56853 -5.73333,-5.73333v-34.4c0,-3.1648 2.56853,-5.73333 5.73333,-5.73333z"></path></g></g></svg>