<svg xmlns="http://www.w3.org/2000/svg" x="0px" y="0px"
width="24" height="24"
viewBox="0 0 172 172"
style=" fill:#000000;"><g fill="none" fill-rule="nonzero" stroke="none" stroke-width="1" stroke-linecap="butt" stroke-linejoin="miter" stroke-miterlimit="10" stroke-dasharray="" stroke-dashoffset="0" font-family="none" font-weight="none" font-size="none" text-anchor="none" style="mix-blend-mode: normal"><path d="M0,172v-172h172v172z" fill="none"></path><g fill="#ffffff"><path d="M21.5,21.5c-7.90483,0 -14.33333,6.4285 -14.33333,14.33333v71.66667c0,7.90483 6.4285,14.33333 14.33333,14.33333h93.16667c7.90483,0 14.33333,-6.4285 14.33333,-14.33333v-71.66667c0,-7.90483 -6.4285,-14.33333 -14.33333,-14.33333zM150.38802,50.06868c-3.95253,0.06178 -7.10881,3.312 -7.05469,7.26465v78.83333h-100.33333c-2.58456,-0.03655 -4.98858,1.32136 -6.29153,3.55376c-1.30295,2.2324 -1.30295,4.99342 0,7.22582c1.30295,2.2324 3.70697,3.59031 6.29153,3.55376h100.33333c7.83362,0 14.33333,-6.49972 14.33333,-14.33333v-78.83333c0.02653,-1.93715 -0.73227,-3.80254 -2.10349,-5.17112c-1.37122,-1.36858 -3.23806,-2.12378 -5.17516,-2.09353zM54.54785,52.53223c0.77064,-0.02699 1.56748,0.14781 2.32357,0.5599l26.76302,14.58529c3.15333,1.72 3.15333,6.25852 0,7.97852l-26.76302,14.58528c-3.02433,1.64833 -6.70475,-0.54209 -6.70475,-3.98926v-29.17057c0,-2.58537 2.06926,-4.46819 4.38118,-4.54915z"></path></g></g></svg>